<svg width="133" height="47" viewBox="0 0 133 47" fill="none" xmlns="http://www.w3.org/2000/svg">
<path d="M32.593 32.6591C36.4889 33.2122 40.3079 29.0062 41.1229 23.2647C41.938 17.5233 39.4403 12.4206 35.5444 11.8676C31.6484 11.3145 27.8294 15.5206 27.0144 21.262C26.1994 27.0034 28.697 32.1061 32.593 32.6591Z" fill="#A57939"/>
<path fill-rule="evenodd" clip-rule="evenodd" d="M32.593 32.659C32.5874 32.6583 32.5871 32.6499 32.5929 32.6492C35.8851 32.0431 38.8378 28.1346 39.5579 23.0618C40.2784 17.986 38.5274 13.4079 35.5312 11.9122C35.5064 11.9003 35.5173 11.8636 35.5444 11.8675C39.4402 12.4205 41.938 17.5232 41.123 23.2646C40.3079 29.0061 36.4888 33.2121 32.593 32.659Z" fill="#6A462F"/>
<path d="M32.5928 32.6492L32.6606 33.0179L32.5928 32.6492ZM39.1867 23.0088C38.8345 25.49 37.9371 27.6757 36.7377 29.3083C35.5358 30.944 34.0498 31.9993 32.5249 32.2797L32.6606 33.0175C34.4279 32.6919 36.0647 31.4903 37.342 29.7521C38.6221 28.0104 39.5614 25.7057 39.9293 23.1142L39.1867 23.0088ZM35.3636 12.2471C36.7515 12.9403 37.8859 14.3672 38.5865 16.2733C39.2854 18.1754 39.5392 20.5257 39.1867 23.0088L39.9293 23.1142C40.2973 20.5212 40.0361 18.0445 39.2905 16.0149C38.5464 13.989 37.3072 12.3795 35.6985 11.5766L35.3636 12.2475L35.3636 12.2471ZM35.4917 12.2388C37.2801 12.4927 38.79 13.7967 39.7637 15.7851C40.7357 17.7719 41.15 20.4059 40.7517 23.212L41.4942 23.3174C41.9109 20.3824 41.4836 17.594 40.4373 15.4558C39.391 13.3192 37.7048 11.7954 35.5971 11.4962L35.4917 12.2388ZM40.7517 23.212C40.3533 26.0185 39.2227 28.4328 37.7359 30.0701C36.2472 31.7094 34.4341 32.5417 32.6457 32.2878L32.5403 33.0304C34.648 33.3296 36.6921 32.335 38.2912 30.5742C39.8912 28.8121 41.0775 26.2531 41.4942 23.3174L40.7517 23.212ZM35.6985 11.5769C35.7724 11.6147 35.8306 11.6774 35.8628 11.7539C35.8949 11.8304 35.899 11.9159 35.8742 11.9951C35.8495 12.0743 35.7975 12.1423 35.7275 12.1869C35.6575 12.2315 35.5739 12.2499 35.4917 12.2388L35.5971 11.4962C35.5026 11.4827 35.4064 11.5036 35.3261 11.5551C35.2457 11.6067 35.1866 11.6854 35.1595 11.7769C35.1121 11.9353 35.1651 12.1489 35.3635 12.2479L35.6985 11.5769V11.5769ZM32.5248 32.2801C32.0872 32.3608 32.1274 32.9718 32.5403 33.0304L32.6457 32.2878C33.0466 32.3447 33.0868 32.9394 32.6606 33.0179L32.5248 32.2801Z" fill="#6A462F"/>
<path fill-rule="evenodd" clip-rule="evenodd" d="M32.7511 31.5453C32.7511 31.5453 31.1133 27.0733 31.841 21.9471C32.5662 16.8383 35.3674 13.0075 35.3863 12.9814C35.3727 12.9999 33.9757 14.9136 33.6136 17.4642C33.2498 20.0272 34.0687 22.2633 34.0687 22.2633C34.0687 22.2633 34.8876 24.4991 34.5237 27.0624C34.1599 29.6254 32.7511 31.5453 32.7511 31.5453Z" fill="#6A462F"/>
<path d="M32.7511 31.5453L32.3991 31.6741C32.4225 31.7377 32.4626 31.7939 32.5153 31.8365C32.568 31.8791 32.6313 31.9066 32.6984 31.9162C32.7655 31.9257 32.834 31.9169 32.8965 31.8906C32.959 31.8643 33.0132 31.8216 33.0533 31.767L32.7511 31.5453ZM35.3863 12.9814L35.6889 13.2028C35.7477 13.1225 35.7721 13.0222 35.7569 12.9239C35.7417 12.8256 35.6881 12.7374 35.6078 12.6786C35.5276 12.6198 35.4273 12.5954 35.329 12.6106C35.2307 12.6258 35.1424 12.6794 35.0837 12.7597L35.3863 12.9814ZM34.0687 22.2634L34.4207 22.1342L34.0687 22.2634ZM31.4697 21.8944C31.0986 24.509 31.3311 26.9509 31.6539 28.7352C31.7832 29.4541 31.9474 30.1663 32.146 30.8693C32.2174 31.1203 32.2951 31.3695 32.3788 31.6167L32.3934 31.6582L32.3971 31.6693L32.3986 31.6725L32.3984 31.6736L32.3988 31.6737L32.7511 31.5453C33.1031 31.4161 33.1035 31.4162 33.1034 31.4165L33.1035 31.4162L33.1026 31.4145L33.0996 31.4062L33.0873 31.3703C33.0759 31.3384 33.0596 31.2903 33.0384 31.2263C32.9777 31.0399 32.9206 30.8523 32.8671 30.6637C32.6754 29.9845 32.5169 29.2964 32.3921 28.6018C32.0783 26.8683 31.8558 24.5112 32.2123 21.9998L31.4697 21.8944ZM35.0837 12.7597C35.0536 12.8009 32.2082 16.6921 31.4697 21.8944L32.2123 21.9998C32.9243 16.9839 35.6804 13.2144 35.6889 13.2031L35.0837 12.7597V12.7597ZM33.9849 17.517C34.1587 16.2929 34.582 15.2159 34.9668 14.4395C35.3507 13.6646 35.6908 13.2 35.6889 13.2028L35.0836 12.76C35.0593 12.7929 33.6177 14.7677 33.2424 17.4112L33.985 17.5166L33.9849 17.517ZM34.0687 22.2634C34.4207 22.1342 34.4211 22.1342 34.421 22.1346L34.4211 22.1342L34.4197 22.1306C34.4095 22.1024 34.3998 22.074 34.3905 22.0454C34.3701 21.9834 34.3412 21.8907 34.3071 21.7711C34.2129 21.4374 34.135 21.0994 34.0736 20.7581C33.9191 19.904 33.8104 18.7466 33.9849 17.517L33.2424 17.4116C33.0532 18.7445 33.1719 19.9866 33.3354 20.8916C33.4013 21.257 33.4849 21.619 33.586 21.9763C33.6227 22.1054 33.6626 22.2336 33.7056 22.3607L33.7131 22.3829C33.7143 22.3854 33.7147 22.3877 33.7156 22.389L33.7161 22.3909L33.7164 22.3917L34.0687 22.2634ZM34.0687 22.2634L33.7163 22.3921L33.7177 22.3961C33.7279 22.4243 33.7376 22.4527 33.7468 22.4813C33.7673 22.5429 33.7961 22.6356 33.8303 22.7552C33.8985 22.9952 33.9867 23.3425 34.0637 23.7682C34.2182 24.6223 34.327 25.7801 34.1524 27.0097L34.895 27.1151C35.0842 25.7819 34.9655 24.5397 34.802 23.6348C34.7361 23.2693 34.6525 22.9073 34.5514 22.55C34.5126 22.4135 34.4702 22.2781 34.4243 22.1438L34.4218 22.1374L34.4213 22.1354L34.421 22.1346L34.0687 22.2634ZM34.1524 27.0097C33.9779 28.2394 33.5513 29.3208 33.1648 30.0981C33.0111 30.4088 32.8423 30.7118 32.6591 31.0061C32.5924 31.1126 32.5229 31.2173 32.4509 31.3201L32.4489 31.3233L32.7511 31.5453L33.0537 31.767L33.0537 31.7667L33.0538 31.7659C33.0546 31.7657 33.0547 31.7649 33.0552 31.7642C33.0565 31.7633 33.0575 31.7611 33.0593 31.7591L33.0731 31.7399C33.0845 31.7233 33.1015 31.6996 33.1221 31.6692C33.1638 31.6077 33.223 31.5187 33.2945 31.4043C33.4909 31.0892 33.6719 30.7648 33.8367 30.4321C34.2461 29.6077 34.7058 28.448 34.895 27.1151L34.1524 27.0097Z" fill="#6A462F"/>
<path d="M32.593 32.6591C36.4889 33.2122 40.3079 29.0062 41.1229 23.2647C41.938 17.5233 39.4403 12.4206 35.5444 11.8676C31.6484 11.3145 27.8294 15.5206 27.0144 21.262C26.1994 27.0034 28.697 32.1061 32.593 32.6591Z" stroke="black" stroke-width="2"/>
<path d="M34.0687 22.2634C34.0687 22.2634 33.2498 20.0276 33.6136 17.4643C33.9775 14.901 35.3863 12.9815 35.3863 12.9815" stroke="black" stroke-width="2" stroke-linecap="round" stroke-linejoin="round"/>
<path d="M34.0687 22.2634C34.0687 22.2634 34.8876 24.4992 34.5237 27.0625C34.1598 29.6258 32.7511 31.5454 32.7511 31.5454" stroke="black" stroke-width="2" stroke-linecap="round" stroke-linejoin="round"/>
<path d="M23.1504 25.0107L23.5459 25.0459C23.9033 25.0752 24.082 25.207 24.082 25.4414C24.082 25.793 23.8916 27.4482 23.5107 30.4072C23.4814 30.6123 23.1914 30.8965 22.6406 31.2598C22.0957 31.6172 21.4102 31.9775 20.584 32.3408C18.5332 33.2373 16.4238 33.6855 14.2559 33.6855C12.0059 33.6855 9.91992 33.2344 7.99805 32.332C6.07617 31.4238 4.52344 30.0264 3.33984 28.1396C2.12109 26.2002 1.51172 23.8008 1.51172 20.9414C1.51172 16.459 3.25781 13.0254 6.75 10.6406C8.92383 9.15234 11.499 8.4082 14.4756 8.4082C17.0654 8.4082 19.4561 9.19922 21.6475 10.7812C21.8701 10.9453 22.0107 11.0508 22.0693 11.0977C22.1338 11.1445 22.1953 11.1826 22.2539 11.2119C22.3184 11.2354 22.3623 11.2324 22.3857 11.2031C22.415 11.168 22.4297 11.1006 22.4297 11.001V10.0342C22.4297 9.80566 22.4678 9.65332 22.5439 9.57715C22.626 9.49512 22.8076 9.4541 23.0889 9.4541C23.376 9.4541 23.584 9.49219 23.7129 9.56836C23.8418 9.64453 23.9062 9.7998 23.9062 10.0342L23.7568 17.1621C23.7568 17.3848 23.71 17.5254 23.6162 17.584C23.5283 17.6367 23.332 17.6631 23.0273 17.6631C22.7285 17.6631 22.5293 17.6338 22.4297 17.5752C22.3301 17.5107 22.2803 17.3848 22.2803 17.1973L22.4297 13.8838C22.4297 13.6143 22.0459 13.1719 21.2783 12.5566C20.5166 11.9414 19.8164 11.4434 19.1777 11.0625C17.6484 10.1602 15.9961 9.70898 14.2207 9.70898C11.1445 9.70898 8.74512 11.2148 7.02246 14.2266C5.93848 16.125 5.39648 18.3867 5.39648 21.0117C5.39648 22.5 5.6543 23.9238 6.16992 25.2832C6.69141 26.6426 7.3916 27.8203 8.27051 28.8164C9.14941 29.8066 10.1982 30.5977 11.417 31.1895C12.6416 31.7754 13.7783 32.0684 14.8271 32.0684C15.876 32.0684 16.7725 31.998 17.5166 31.8574C18.2666 31.7168 18.9082 31.5439 19.4414 31.3389C19.9746 31.1338 20.4551 30.9199 20.8828 30.6973C21.7266 30.2461 22.1572 29.9209 22.1748 29.7217L22.6406 25.5469C22.6992 25.1895 22.8691 25.0107 23.1504 25.0107ZM46.4667 33.1055L43.663 33.1758C43.4286 33.1758 43.2734 33.1289 43.1972 33.0352C43.121 32.9414 43.0829 32.7861 43.0829 32.5693C43.0829 32.1826 43.2646 31.9893 43.6279 31.9893H44.8847C44.955 31.9893 44.9902 31.2715 44.9902 29.8359L44.955 26.8037V24.6504C44.955 21.9844 44.9316 20.6514 44.8847 20.6514H43.5575C43.3525 20.6514 43.2265 20.6191 43.1796 20.5547C43.1386 20.4844 43.1181 20.3262 43.1181 20.0801C43.1181 19.8281 43.1327 19.6699 43.162 19.6055C43.1972 19.5352 43.2909 19.5 43.4433 19.5H44.6738C44.7968 19.5 44.8671 19.4854 44.8847 19.4561C44.9081 19.4209 44.9198 19.2686 44.9198 18.999C44.9198 18.7295 44.9228 18.4512 44.9286 18.1641C44.9345 17.877 44.9491 17.5078 44.9726 17.0566C45.0019 16.5996 45.04 16.1953 45.0868 15.8438C45.1337 15.4922 45.204 15.0908 45.2978 14.6396C45.3915 14.1826 45.5029 13.7754 45.6318 13.418C45.7607 13.0547 45.9247 12.6768 46.1239 12.2842C46.3232 11.8857 46.5488 11.5313 46.8007 11.2207C47.3515 10.541 48.0488 9.99902 48.8925 9.59473C49.7421 9.19043 50.7001 8.98828 51.7665 8.98828C52.8329 8.98828 53.8876 9.43359 54.9306 10.3242C55.0771 10.4707 55.1767 10.541 55.2294 10.5352C55.2822 10.5293 55.373 10.4443 55.5019 10.2803C56.3984 9.08496 57.7079 8.4873 59.4306 8.4873C60.7021 8.4873 61.6484 8.87695 62.2695 9.65625C62.5859 10.043 62.7441 10.4678 62.7441 10.9307C62.7441 11.3877 62.5155 11.8154 62.0585 12.2139C61.6015 12.6064 61.206 12.8027 60.872 12.8027C60.538 12.8027 60.3564 12.6592 60.3271 12.3721C60.3271 12.3545 60.2919 12.0938 60.2216 11.5898C60.1572 11.0859 60.0282 10.6143 59.8349 10.1748C59.6415 9.72949 59.3427 9.50391 58.9384 9.49805C58.54 9.49219 58.2323 9.53613 58.0155 9.62988C57.8046 9.71777 57.6288 9.83496 57.4882 9.98145C57.3476 10.1221 57.2245 10.3184 57.1191 10.5703C57.0195 10.8223 56.9433 11.0684 56.8905 11.3086C56.8378 11.543 56.7968 11.8447 56.7675 12.2139C56.7206 12.7178 56.6972 13.418 56.6972 14.3145V18.999C56.6972 19.251 56.7206 19.3975 56.7675 19.4385C56.8202 19.4795 56.9989 19.5 57.3036 19.5H61.4784C61.7187 19.5 61.8388 19.5645 61.8388 19.6934C61.8388 19.8223 61.8066 20.0098 61.7421 20.2559C61.6777 20.4961 61.5898 20.6162 61.4784 20.6162H57.3036C57.0634 20.6162 56.9198 20.6338 56.873 20.6689C56.8261 20.6982 56.8027 20.7891 56.8027 20.9414V26.918C56.8027 28.125 56.832 29.2734 56.8905 30.3633C56.955 31.4473 57.0224 31.9893 57.0927 31.9893H59.5009C59.7294 31.9893 59.87 32.0332 59.9228 32.1211C59.9755 32.2031 60.0019 32.3262 60.0019 32.4902C60.0019 32.6484 59.9989 32.7539 59.9931 32.8066C59.9872 32.8594 59.9697 32.918 59.9404 32.9824C59.8876 33.1113 59.7411 33.1758 59.5009 33.1758L55.6161 33.1055L52.663 33.1758C52.4638 33.1758 52.3407 33.1318 52.2939 33.0439C52.2529 32.9619 52.2323 32.8125 52.2323 32.5957C52.2323 32.373 52.2587 32.2178 52.3114 32.1299C52.37 32.0361 52.4989 31.9893 52.6982 31.9893H54.0341C54.1044 31.9893 54.1396 31.2715 54.1396 29.8359L54.1044 26.8037V24.6504L54.0693 20.9766C54.0693 20.8066 54.0429 20.7041 53.9902 20.6689C53.9433 20.6338 53.788 20.6162 53.5243 20.6162H48.163C47.9228 20.6162 47.7792 20.6338 47.7323 20.6689C47.6855 20.6982 47.662 20.7891 47.662 20.9414V26.918C47.662 28.1367 47.6913 29.2881 47.7499 30.3721C47.8085 31.4502 47.873 31.9893 47.9433 31.9893H50.0351C50.3163 31.9893 50.4687 32.1006 50.4921 32.3232C50.498 32.376 50.5009 32.458 50.5009 32.5693C50.5009 32.6748 50.498 32.7539 50.4921 32.8066C50.4863 32.8594 50.4687 32.918 50.4394 32.9824C50.3925 33.1113 50.2577 33.1758 50.0351 33.1758L46.4667 33.1055ZM53.9902 19.1396L53.955 16.292C53.955 15.1611 54.0077 14.3174 54.1132 13.7607C54.2245 13.2041 54.2802 12.9053 54.2802 12.8643C54.2802 12.8232 54.2568 12.7793 54.2099 12.7324C53.8407 12.4746 53.5595 12.1758 53.3661 11.8359C53.1786 11.4961 53.0263 11.2471 52.9091 11.0889C52.7919 10.9248 52.6425 10.752 52.4609 10.5703C52.1093 10.2129 51.6962 10.0342 51.2216 10.0342C50.7529 10.0342 50.3603 10.0957 50.0439 10.2188C49.7333 10.3359 49.4638 10.4912 49.2353 10.6846C49.0126 10.8721 48.8105 11.1182 48.6288 11.4229C48.4472 11.7275 48.2978 12.0293 48.1806 12.3281C48.0693 12.6211 47.9697 12.9756 47.8818 13.3916C47.7997 13.8018 47.7382 14.168 47.6972 14.4902C47.6562 14.8125 47.6239 15.1934 47.6005 15.6328C47.5654 16.3008 47.5478 16.9893 47.5478 17.6982V19.1045C47.5478 19.2861 47.5683 19.3975 47.6093 19.4385C47.6562 19.4795 47.7792 19.5 47.9784 19.5H53.7089C53.8495 19.5 53.9316 19.4824 53.955 19.4473C53.9784 19.4121 53.9902 19.3096 53.9902 19.1396ZM74.108 25.0107L66.0748 24.8262C66.0045 25.002 65.9693 25.4678 65.9693 26.2236C65.9693 26.9795 66.1158 27.7324 66.4087 28.4824C66.7017 29.2324 67.0884 29.8477 67.5689 30.3281C68.5943 31.3418 69.7779 31.8486 71.1197 31.8486C72.7545 31.8486 74.2427 31.1484 75.5845 29.748C75.7427 29.5898 75.8423 29.5107 75.8834 29.5107C75.9244 29.5107 76.0504 29.6045 76.2613 29.792C76.4781 29.9736 76.5865 30.0879 76.5865 30.1348C76.5865 30.1816 76.4898 30.3281 76.2964 30.5742C76.1089 30.8145 75.8218 31.1104 75.4351 31.4619C75.0543 31.8076 74.6177 32.1445 74.1255 32.4727C72.942 33.2578 71.7261 33.6504 70.4781 33.6504C69.2359 33.6504 68.1695 33.4688 67.2789 33.1055C66.3882 32.748 65.65 32.2471 65.064 31.6025C64.4839 30.9521 64.0386 30.1816 63.7281 29.291C63.4234 28.3945 63.2711 27.4102 63.2711 26.3379C63.2711 25.2656 63.4527 24.2578 63.816 23.3145C64.1793 22.3711 64.6802 21.5566 65.3189 20.8711C66.7076 19.3828 68.4947 18.6387 70.6802 18.6387C72.4556 18.6387 73.8267 19.2305 74.7935 20.4141C75.7017 21.5273 76.1558 22.8779 76.1558 24.4658C76.1558 24.8291 75.4732 25.0107 74.108 25.0107ZM72.649 23.8418C73.188 23.8418 73.4576 23.7979 73.4576 23.71C73.4576 21.9873 72.9244 20.792 71.858 20.124C71.3423 19.8018 70.8062 19.6406 70.2496 19.6406C69.6988 19.6406 69.1685 19.7754 68.6587 20.0449C68.1548 20.3145 67.7271 20.6572 67.3755 21.0732C66.6255 21.9697 66.2154 22.8867 66.1451 23.8242C66.1451 23.9414 66.2535 24 66.4703 24L72.649 23.8418ZM79.2316 20.335L79.0471 20.3262H78.3967C78.1975 20.3262 78.0686 20.2822 78.01 20.1943C77.9572 20.1064 77.9309 19.96 77.9309 19.7549C77.9309 19.3447 78.0861 19.1396 78.3967 19.1396L80.9191 19.21L84.1623 19.1396C84.3967 19.1396 84.5227 19.2305 84.5402 19.4121C84.552 19.4766 84.5578 19.5996 84.5578 19.7812C84.5578 20.1445 84.4377 20.3262 84.1975 20.3262H82.9318C82.5744 20.3262 82.3957 20.3877 82.3957 20.5107C82.4484 20.7861 82.9113 22.1719 83.7844 24.668C84.6574 27.1641 85.2463 28.7461 85.551 29.4141C85.8557 30.0762 86.0344 30.4072 86.0871 30.4072C86.1457 30.4072 86.2219 30.2754 86.3156 30.0117C88.5773 24.6328 89.7082 21.5596 89.7082 20.792C89.7082 20.4814 89.6232 20.3262 89.4533 20.3262H88.4074C88.1262 20.3262 87.9738 20.2178 87.9504 20.001C87.9445 19.9482 87.9416 19.8662 87.9416 19.7549C87.9416 19.6377 87.9445 19.5527 87.9504 19.5C87.9563 19.4473 87.9738 19.3887 88.0031 19.3242C88.0559 19.2012 88.2023 19.1396 88.4426 19.1396L90.6047 19.21L92.5471 19.1396C92.717 19.1396 92.8254 19.1865 92.8723 19.2803C92.9191 19.374 92.9426 19.5732 92.9426 19.8779C92.9426 20.1768 92.799 20.3262 92.5119 20.3262H91.8264C91.7092 20.3262 91.633 20.3525 91.5979 20.4053C91.5686 20.458 91.5363 20.5107 91.5012 20.5635C91.4719 20.6162 91.3869 20.7686 91.2463 21.0205C91.1115 21.2666 90.4904 22.7285 89.383 25.4062C88.2756 28.084 87.5402 29.8037 87.177 30.5654C86.8195 31.3213 86.5617 31.8047 86.4035 32.0156C86.2512 32.2266 86.0549 32.4727 85.8147 32.7539C85.5803 33.0293 85.34 33.3516 85.0939 33.7207C84.9416 33.9141 84.7951 34.0107 84.6545 34.0107C84.5197 34.0107 84.3996 33.9521 84.2941 33.835C84.1887 33.7178 84.092 33.5508 84.0041 33.334C83.9162 33.1172 83.84 32.915 83.7756 32.7275C83.717 32.54 83.6525 32.3203 83.5822 32.0684C83.5119 31.8105 83.4152 31.4912 83.2922 31.1104C82.5949 28.96 81.7863 26.6953 80.8664 24.3164C79.9465 21.9316 79.4748 20.71 79.4514 20.6514C79.4338 20.5928 79.4191 20.5547 79.4074 20.5371C79.4016 20.5195 79.3898 20.4932 79.3723 20.458C79.3605 20.4229 79.3488 20.4023 79.3371 20.3965C79.3254 20.3906 79.3107 20.3789 79.2932 20.3613C79.2756 20.3438 79.2551 20.335 79.2316 20.335ZM104.851 25.0107L96.8182 24.8262C96.7479 25.002 96.7127 25.4678 96.7127 26.2236C96.7127 26.9795 96.8592 27.7324 97.1522 28.4824C97.4452 29.2324 97.8319 29.8477 98.3123 30.3281C99.3377 31.3418 100.521 31.8486 101.863 31.8486C103.498 31.8486 104.986 31.1484 106.328 29.748C106.486 29.5898 106.586 29.5107 106.627 29.5107C106.668 29.5107 106.794 29.6045 107.005 29.792C107.222 29.9736 107.33 30.0879 107.33 30.1348C107.33 30.1816 107.233 30.3281 107.04 30.5742C106.852 30.8145 106.565 31.1104 106.179 31.4619C105.798 31.8076 105.361 32.1445 104.869 32.4727C103.685 33.2578 102.47 33.6504 101.222 33.6504C99.9793 33.6504 98.9129 33.4688 98.0223 33.1055C97.1317 32.748 96.3934 32.2471 95.8075 31.6025C95.2274 30.9521 94.7821 30.1816 94.4715 29.291C94.1668 28.3945 94.0145 27.4102 94.0145 26.3379C94.0145 25.2656 94.1961 24.2578 94.5594 23.3145C94.9227 22.3711 95.4237 21.5566 96.0623 20.8711C97.451 19.3828 99.2381 18.6387 101.424 18.6387C103.199 18.6387 104.57 19.2305 105.537 20.4141C106.445 21.5273 106.899 22.8779 106.899 24.4658C106.899 24.8291 106.217 25.0107 104.851 25.0107ZM103.392 23.8418C103.931 23.8418 104.201 23.7979 104.201 23.71C104.201 21.9873 103.668 20.792 102.601 20.124C102.086 19.8018 101.55 19.6406 100.993 19.6406C100.442 19.6406 99.912 19.7754 99.4022 20.0449C98.8983 20.3145 98.4706 20.6572 98.119 21.0732C97.369 21.9697 96.9588 22.8867 96.8885 23.8242C96.8885 23.9414 96.9969 24 97.2137 24L103.392 23.8418ZM109.632 20.5459C109.462 20.5459 109.377 20.5166 109.377 20.458C109.377 20.3994 109.386 20.3291 109.404 20.2471C109.421 20.1592 109.442 20.0654 109.465 19.9658C109.495 19.8662 109.518 19.7695 109.536 19.6758C109.571 19.5352 109.782 19.4648 110.168 19.4648C112.172 19.3945 113.374 19.3594 113.772 19.3594C114.176 19.3594 114.396 19.374 114.431 19.4033C114.472 19.4268 114.493 19.5176 114.493 19.6758L114.457 21.7676V22.0137L114.466 22.1543C114.466 22.1191 114.51 22.0137 114.598 21.8379C114.997 20.8828 115.521 20.124 116.171 19.5615C116.822 18.9932 117.428 18.709 117.991 18.709C118.559 18.709 119.072 18.9111 119.529 19.3154C119.986 19.7197 120.214 20.0596 120.214 20.335C120.214 20.6045 120.047 20.9473 119.713 21.3633C119.379 21.7793 119.089 21.9873 118.843 21.9873C118.597 21.9873 118.369 21.9287 118.158 21.8115C117.947 21.6885 117.762 21.5566 117.604 21.416C117.182 21.0293 116.851 20.8359 116.611 20.8359C115.316 20.8359 114.668 23.2471 114.668 28.0693C114.668 30.6826 114.777 31.9893 114.994 31.9893H117.367C117.566 31.9893 117.695 32.0361 117.753 32.1299C117.812 32.2178 117.841 32.3408 117.841 32.499C117.841 32.6514 117.838 32.7539 117.832 32.8066C117.827 32.8594 117.809 32.918 117.78 32.9824C117.727 33.1113 117.589 33.1758 117.367 33.1758L113.447 33.1055L110.239 33.1758C110.04 33.1758 109.911 33.1289 109.852 33.0352C109.799 32.9473 109.773 32.8213 109.773 32.6572C109.773 32.4873 109.776 32.376 109.782 32.3232C109.788 32.2705 109.802 32.2148 109.826 32.1562C109.867 32.0449 109.993 31.9893 110.204 31.9893H111.786C111.979 31.9893 112.076 30.0703 112.076 26.2324C112.076 22.3945 111.979 20.4756 111.786 20.4756L109.632 20.5459ZM122.675 32.3496C122.212 31.9863 121.981 31.623 121.981 31.2598C121.981 30.8965 122.136 30.5449 122.446 30.2051C122.763 29.8594 122.98 29.6865 123.097 29.6865C123.22 29.6865 123.314 29.7363 123.378 29.8359C123.448 29.9355 123.533 30.082 123.633 30.2754C123.733 30.4629 123.917 30.7236 124.187 31.0576C124.456 31.3916 124.846 31.7168 125.356 32.0332C125.865 32.3438 126.46 32.499 127.14 32.499C127.825 32.499 128.385 32.3115 128.818 31.9365C129.252 31.5557 129.469 30.999 129.469 30.2666C129.469 29.1943 128.754 28.3066 127.324 27.6035C127.055 27.4746 126.551 27.249 125.813 26.9268C125.08 26.6045 124.485 26.2998 124.028 26.0127C122.734 25.1865 122.086 24.1553 122.086 22.9189C122.086 22.1221 122.347 21.3984 122.868 20.748C123.396 20.0977 124.061 19.6025 124.863 19.2627C125.666 18.917 126.416 18.7441 127.113 18.7441C127.817 18.7441 128.391 18.8027 128.836 18.9199C129.281 19.0312 129.648 19.1807 129.935 19.3682C130.222 19.5498 130.468 19.7578 130.673 19.9922C131.048 20.4199 131.235 20.8682 131.235 21.3369C131.235 21.5303 131.036 21.7002 130.638 21.8467C130.245 21.9873 129.946 22.0576 129.741 22.0576C129.536 22.0576 129.39 22.0166 129.302 21.9346C129.214 21.8467 129.138 21.7354 129.073 21.6006C129.015 21.46 128.953 21.3076 128.889 21.1436C128.824 20.9736 128.742 20.8066 128.643 20.6426C128.543 20.4727 128.423 20.3203 128.282 20.1855C127.978 19.875 127.611 19.7197 127.184 19.7197C126.762 19.7197 126.437 19.7461 126.208 19.7988C125.98 19.8457 125.754 19.9307 125.531 20.0537C125.309 20.1709 125.115 20.3203 124.951 20.502C124.582 20.9004 124.398 21.4424 124.398 22.1279C124.398 22.79 124.652 23.3145 125.162 23.7012C125.531 23.9824 125.865 24.1992 126.164 24.3516C126.469 24.498 126.7 24.6123 126.859 24.6943C127.023 24.7764 127.125 24.8262 127.166 24.8438C128.022 25.207 128.845 25.6289 129.636 26.1094C131.083 27 131.807 28.0254 131.807 29.1855C131.807 30.0527 131.561 30.8232 131.068 31.4971C130.078 32.8564 128.596 33.5361 126.621 33.5361C124.998 33.5361 123.683 33.1406 122.675 32.3496Z" fill="black"/>
</svg>
